<svg id="svg" version="1.1" xmlns="http://www.w3.org/2000/svg" xmlns:xlink="http://www.w3.org/1999/xlink" width="400" height="400" viewBox="0, 0, 400,400"><g id="svgg"><path id="path0" d="M0.000 200.000 L 0.000 400.000 200.000 400.000 L 400.000 400.000 400.000 200.000 L 400.000 0.000 200.000 0.000 L 0.000 0.000 0.000 200.000 M394.200 200.000 L 394.200 394.200 200.000 394.200 L 5.800 394.200 5.698 200.400 C 5.641 93.810,5.681 6.375,5.785 6.100 C 5.937 5.700,45.007 5.619,200.088 5.700 L 394.200 5.800 394.200 200.000 " stroke="none" fill="#f5b504" fill-rule="evenodd"></path><path id="path1" d="M252.200 104.768 C 249.297 105.338,246.564 106.999,245.616 108.771 C 244.758 110.373,243.003 139.885,241.986 169.800 C 241.747 176.840,241.486 182.805,241.405 183.056 C 241.299 183.387,234.562 183.570,216.730 183.727 C 191.077 183.953,162.424 184.612,161.187 185.004 C 160.049 185.365,160.051 182.221,161.211 149.717 C 162.711 107.674,162.001 105.461,147.000 105.418 C 139.581 105.397,135.995 105.947,121.800 109.280 C 115.387 110.785,115.665 110.570,116.124 113.685 C 116.651 117.266,116.680 117.328,117.705 117.035 C 121.692 115.894,133.817 115.863,136.506 116.986 C 138.412 117.783,140.507 120.325,141.107 122.569 C 142.135 126.411,141.562 178.925,140.003 223.800 C 139.202 246.865,138.194 273.944,137.882 280.800 L 137.800 282.600 139.800 282.571 C 140.900 282.555,143.330 282.330,145.200 282.070 C 147.070 281.811,150.220 281.416,152.200 281.193 C 154.180 280.970,156.090 280.697,156.443 280.585 C 157.276 280.322,157.465 277.447,158.029 256.400 C 158.911 223.481,159.856 195.610,160.099 195.368 C 160.798 194.669,190.404 193.616,217.600 193.323 L 241.000 193.072 241.000 228.036 C 241.000 270.190,241.264 272.642,246.473 278.962 C 250.549 283.907,260.292 285.359,269.600 282.410 C 270.150 282.235,271.410 281.867,272.400 281.591 C 279.062 279.732,290.860 275.220,291.123 274.431 C 291.202 274.195,290.871 272.814,290.388 271.363 C 289.409 268.421,289.400 268.418,285.400 269.597 C 275.274 272.580,267.232 271.258,263.782 266.045 C 260.139 260.540,259.791 256.875,259.847 224.600 C 259.918 183.368,261.083 155.846,264.404 117.000 C 264.611 114.580,264.888 111.234,265.018 109.565 L 265.256 106.529 262.528 105.680 C 259.460 104.724,254.606 104.296,252.200 104.768 " stroke="none" fill="#04acbb" fill-rule="evenodd"></path><path id="path2" d="M6.400 200.000 L 6.400 393.600 200.000 393.600 L 393.600 393.600 393.600 200.000 L 393.600 6.400 200.000 6.400 L 6.400 6.400 6.400 200.000 M148.700 104.287 C 148.095 104.378,147.105 104.378,146.500 104.287 C 145.895 104.195,146.390 104.120,147.600 104.120 C 148.810 104.120,149.305 104.195,148.700 104.287 M260.300 104.276 C 259.915 104.376,259.285 104.376,258.900 104.276 C 258.515 104.175,258.830 104.093,259.600 104.093 C 260.370 104.093,260.685 104.175,260.300 104.276 M262.528 105.680 L 265.256 106.529 265.018 109.565 C 264.888 111.234,264.611 114.580,264.404 117.000 C 262.970 133.778,262.428 141.679,261.206 163.600 C 260.535 175.627,260.264 187.829,260.641 189.042 C 260.840 189.683,260.904 195.290,260.785 201.600 L 260.570 213.000 260.409 201.400 L 260.249 189.800 259.979 201.200 C 259.621 216.348,259.626 247.884,259.987 251.400 L 260.274 254.200 260.408 251.000 L 260.541 247.800 260.774 250.600 C 260.902 252.140,260.850 253.740,260.659 254.156 C 259.885 255.842,261.763 262.994,263.782 266.045 C 267.232 271.258,275.274 272.580,285.400 269.597 C 289.403 268.418,289.408 268.420,290.392 271.376 C 290.877 272.835,291.174 274.292,291.050 274.614 C 290.926 274.936,291.010 275.200,291.236 275.200 C 291.462 275.200,291.524 275.399,291.374 275.643 C 291.178 275.959,291.014 275.947,290.800 275.600 C 290.608 275.289,290.158 275.223,289.550 275.416 C 288.638 275.706,288.632 275.732,289.400 276.065 C 290.048 276.346,289.999 276.374,289.143 276.209 C 288.511 276.088,287.223 276.383,285.943 276.943 C 283.744 277.903,275.611 280.695,272.400 281.591 C 271.410 281.867,270.150 282.235,269.600 282.410 C 260.416 285.320,250.638 283.919,246.585 279.112 C 245.977 278.391,245.191 277.853,244.839 277.917 C 244.369 278.002,244.334 277.942,244.706 277.690 C 245.106 277.417,245.075 277.072,244.555 276.031 C 244.129 275.175,243.797 274.882,243.605 275.191 C 243.392 275.537,243.248 275.501,243.078 275.059 C 242.950 274.725,243.056 274.381,243.315 274.295 C 243.673 274.176,243.674 273.908,243.319 273.169 C 242.904 272.304,242.851 272.286,242.821 273.000 C 242.794 273.650,242.718 273.690,242.417 273.213 C 242.188 272.851,242.191 272.452,242.424 272.171 C 242.633 271.920,242.675 271.104,242.518 270.357 L 242.234 269.000 241.935 270.200 C 241.652 271.332,241.644 271.320,241.786 270.000 C 241.869 269.230,241.664 266.440,241.330 263.800 C 240.821 259.770,240.746 253.711,240.862 226.036 L 241.000 193.072 217.600 193.323 C 189.947 193.621,160.798 194.669,160.074 195.392 C 159.575 195.891,159.478 208.423,159.966 209.346 C 160.291 209.962,160.320 212.319,160.069 217.800 L 159.720 225.400 159.593 217.600 L 159.466 209.800 159.089 221.761 C 158.812 230.553,158.833 234.103,159.169 235.161 C 159.498 236.197,159.527 238.671,159.273 244.000 L 158.920 251.400 158.786 243.400 C 158.622 233.618,158.544 234.896,158.006 256.200 C 157.469 277.485,157.287 280.319,156.442 280.586 C 156.089 280.697,154.180 280.970,152.200 281.193 C 150.220 281.416,147.070 281.811,145.200 282.070 C 143.330 282.330,140.900 282.555,139.800 282.571 L 137.800 282.600 137.882 280.800 C 138.194 273.944,139.202 246.865,140.003 223.800 C 141.562 178.925,142.135 126.411,141.107 122.569 C 140.507 120.325,138.412 117.783,136.506 116.986 C 133.817 115.863,121.692 115.894,117.705 117.035 C 116.680 117.328,116.651 117.266,116.124 113.685 C 115.673 110.621,115.524 110.758,120.584 109.552 C 124.006 108.736,124.400 108.562,123.384 108.315 C 122.526 108.106,122.695 108.072,124.000 108.190 C 126.332 108.401,132.933 106.993,130.800 106.740 C 130.030 106.648,130.750 106.563,132.400 106.551 C 134.050 106.539,136.390 106.281,137.600 105.978 C 139.035 105.619,142.165 105.427,146.600 105.426 C 161.895 105.422,162.931 108.505,161.233 149.000 C 160.467 167.255,160.254 182.180,160.746 183.099 C 161.045 183.658,161.064 184.037,160.801 184.199 C 160.140 184.608,160.349 185.305,161.051 185.036 C 162.066 184.646,191.380 183.928,217.600 183.651 L 241.400 183.400 241.646 178.600 C 242.018 171.328,242.037 164.427,241.687 163.674 C 241.515 163.303,241.481 160.300,241.612 157.000 L 241.851 151.000 241.989 157.200 L 242.127 163.400 242.501 154.843 C 242.766 148.767,242.748 146.042,242.438 145.443 C 242.137 144.861,242.108 143.174,242.344 140.000 L 242.686 135.400 242.805 140.400 L 242.923 145.400 243.299 138.643 C 243.574 133.691,243.552 131.658,243.216 131.030 C 242.888 130.417,242.862 129.155,243.125 126.587 L 243.492 123.000 243.602 126.000 L 243.711 129.000 244.038 124.800 C 245.244 109.311,245.237 109.471,244.712 109.101 C 244.316 108.821,244.331 108.775,244.777 108.895 C 245.095 108.981,245.861 108.475,246.480 107.770 C 249.404 104.439,255.849 103.600,262.528 105.680 M140.905 105.082 C 140.414 105.177,139.514 105.179,138.905 105.087 C 138.297 104.995,138.700 104.917,139.800 104.914 C 140.900 104.911,141.397 104.987,140.905 105.082 M135.500 105.876 C 135.115 105.976,134.485 105.976,134.100 105.876 C 133.715 105.775,134.030 105.693,134.800 105.693 C 135.570 105.693,135.885 105.775,135.500 105.876 M128.000 107.200 C 128.000 107.420,127.505 107.587,126.900 107.572 C 125.925 107.547,125.891 107.505,126.600 107.200 C 127.693 106.731,128.000 106.731,128.000 107.200 M121.000 108.800 C 121.144 109.032,120.776 109.188,120.124 109.172 C 119.051 109.145,119.172 108.982,120.676 108.428 C 120.718 108.413,120.864 108.580,121.000 108.800 M265.492 115.091 C 265.405 115.921,265.333 115.340,265.331 113.800 C 265.329 112.260,265.400 111.581,265.489 112.291 C 265.577 113.001,265.579 114.261,265.492 115.091 M162.293 119.700 C 162.209 120.635,162.140 119.870,162.140 118.000 C 162.140 116.130,162.209 115.365,162.293 116.300 C 162.377 117.235,162.377 118.765,162.293 119.700 M243.887 117.900 C 243.795 118.505,243.720 118.010,243.720 116.800 C 243.720 115.590,243.795 115.095,243.887 115.700 C 243.978 116.305,243.978 117.295,243.887 117.900 M125.107 117.086 C 124.506 117.177,123.426 117.179,122.707 117.090 C 121.988 117.001,122.480 116.926,123.800 116.924 C 125.120 116.922,125.708 116.995,125.107 117.086 M134.305 117.075 C 133.922 117.175,133.202 117.179,132.705 117.083 C 132.207 116.987,132.520 116.905,133.400 116.901 C 134.280 116.896,134.687 116.975,134.305 117.075 M264.692 124.291 C 264.605 125.121,264.533 124.540,264.531 123.000 C 264.529 121.460,264.600 120.781,264.689 121.491 C 264.777 122.201,264.779 123.461,264.692 124.291 M141.200 147.467 C 141.200 160.373,141.099 170.833,140.976 170.710 C 140.853 170.586,140.763 160.161,140.776 147.543 C 140.790 134.924,140.800 124.465,140.800 124.300 C 140.800 124.135,140.890 124.000,141.000 124.000 C 141.110 124.000,141.200 134.560,141.200 147.467 M263.893 134.489 C 263.809 135.430,263.739 134.760,263.737 133.000 C 263.736 131.240,263.805 130.470,263.891 131.289 C 263.977 132.109,263.978 133.549,263.893 134.489 M162.298 142.500 C 162.227 144.755,162.169 142.910,162.169 138.400 C 162.169 133.890,162.227 132.045,162.298 134.300 C 162.370 136.555,162.370 140.245,162.298 142.500 M263.094 146.300 C 263.012 147.345,262.944 146.490,262.944 144.400 C 262.944 142.310,263.012 141.455,263.094 142.500 C 263.176 143.545,263.176 145.255,263.094 146.300 M262.296 159.900 C 262.216 161.165,262.151 160.130,262.151 157.600 C 262.151 155.070,262.216 154.035,262.296 155.300 C 262.375 156.565,262.375 158.635,262.296 159.900 M161.593 164.200 L 161.349 171.400 161.287 163.600 C 161.252 159.310,161.362 156.070,161.530 156.400 C 161.698 156.730,161.726 160.240,161.593 164.200 M261.587 174.600 L 261.347 180.200 261.273 174.220 C 261.233 170.931,261.341 168.411,261.514 168.620 C 261.686 168.829,261.719 171.520,261.587 174.600 M241.200 178.080 C 241.200 180.764,241.065 182.789,240.900 182.580 C 240.591 182.189,240.711 173.200,241.025 173.200 C 241.121 173.200,241.200 175.396,241.200 178.080 M212.500 183.099 C 209.585 183.167,204.815 183.167,201.900 183.099 C 198.985 183.031,201.370 182.975,207.200 182.975 C 213.030 182.975,215.415 183.031,212.500 183.099 M176.100 183.898 C 174.285 183.972,171.315 183.972,169.500 183.898 C 167.685 183.823,169.170 183.763,172.800 183.763 C 176.430 183.763,177.915 183.823,176.100 183.898 M140.375 195.700 C 140.361 200.815,140.226 204.640,140.075 204.200 C 139.777 203.334,139.911 186.400,140.215 186.400 C 140.317 186.400,140.389 190.585,140.375 195.700 M201.600 194.387 C 196.210 194.512,191.530 194.481,191.200 194.319 C 190.870 194.157,195.280 194.055,201.000 194.092 L 211.400 194.160 201.600 194.387 M176.400 195.182 C 173.430 195.307,170.730 195.278,170.400 195.117 C 170.070 194.956,172.500 194.854,175.800 194.889 L 181.800 194.954 176.400 195.182 M162.400 195.953 C 161.181 196.168,160.968 196.381,160.753 197.600 L 160.505 199.000 160.453 197.300 L 160.400 195.600 162.100 195.653 L 163.800 195.705 162.400 195.953 M240.300 245.870 C 240.240 254.632,240.191 247.580,240.190 230.200 C 240.190 212.820,240.240 205.652,240.300 214.270 C 240.360 222.889,240.360 237.109,240.300 245.870 M139.498 225.680 C 139.426 227.726,139.366 226.160,139.365 222.200 C 139.365 218.240,139.424 216.566,139.498 218.480 C 139.571 220.394,139.571 223.634,139.498 225.680 M138.697 247.900 C 138.622 249.605,138.561 248.210,138.561 244.800 C 138.561 241.390,138.622 239.995,138.697 241.700 C 138.772 243.405,138.772 246.195,138.697 247.900 M261.476 258.700 C 261.375 259.085,261.293 258.770,261.293 258.000 C 261.293 257.230,261.375 256.915,261.476 257.300 C 261.576 257.685,261.576 258.315,261.476 258.700 M137.898 267.882 C 137.822 269.597,137.761 268.300,137.760 265.000 C 137.759 261.700,137.821 260.297,137.897 261.882 C 137.972 263.467,137.973 266.167,137.898 267.882 M158.691 265.500 C 158.605 266.325,158.534 265.650,158.534 264.000 C 158.534 262.350,158.605 261.675,158.691 262.500 C 158.778 263.325,158.778 264.675,158.691 265.500 M241.153 266.100 C 241.109 267.660,241.082 267.701,240.827 266.600 C 240.675 265.940,240.625 265.175,240.718 264.900 C 241.036 263.953,241.200 264.404,241.153 266.100 M282.300 269.876 C 281.915 269.976,281.285 269.976,280.900 269.876 C 280.515 269.775,280.830 269.693,281.600 269.693 C 282.370 269.693,282.685 269.775,282.300 269.876 M276.307 270.686 C 275.706 270.777,274.626 270.779,273.907 270.690 C 273.188 270.601,273.680 270.526,275.000 270.524 C 276.320 270.522,276.908 270.595,276.307 270.686 M137.082 281.700 C 136.987 282.195,136.909 281.790,136.909 280.800 C 136.909 279.810,136.987 279.405,137.082 279.900 C 137.178 280.395,137.178 281.205,137.082 281.700 M153.705 281.882 C 153.214 281.977,152.314 281.979,151.705 281.887 C 151.097 281.795,151.500 281.717,152.600 281.714 C 153.700 281.711,154.197 281.787,153.705 281.882 M147.705 282.682 C 147.214 282.777,146.314 282.779,145.705 282.687 C 145.097 282.595,145.500 282.517,146.600 282.514 C 147.700 282.511,148.197 282.587,147.705 282.682 M140.905 283.482 C 140.414 283.577,139.514 283.579,138.905 283.487 C 138.297 283.395,138.700 283.317,139.800 283.314 C 140.900 283.311,141.397 283.387,140.905 283.482 M265.105 284.275 C 264.722 284.375,264.002 284.379,263.505 284.283 C 263.007 284.187,263.320 284.105,264.200 284.101 C 265.080 284.096,265.487 284.175,265.105 284.275 " stroke="none" fill="#333334" fill-rule="evenodd"></path><path id="path3" d="M5.785 6.100 C 5.681 6.375,5.641 93.810,5.698 200.400 L 5.800 394.200 200.000 394.200 L 394.200 394.200 394.200 200.000 L 394.200 5.800 200.088 5.700 C 45.007 5.619,5.937 5.700,5.785 6.100 M393.701 200.001 L 393.602 393.602 200.001 393.701 L 6.400 393.800 6.400 200.100 L 6.400 6.400 200.100 6.400 L 393.800 6.400 393.701 200.001 " stroke="none" fill="#93741c" fill-rule="evenodd"></path><path id="path4" d="M146.500 104.287 C 147.105 104.378,148.095 104.378,148.700 104.287 C 149.305 104.195,148.810 104.120,147.600 104.120 C 146.390 104.120,145.895 104.195,146.500 104.287 M258.900 104.276 C 259.285 104.376,259.915 104.376,260.300 104.276 C 260.685 104.175,260.370 104.093,259.600 104.093 C 258.830 104.093,258.515 104.175,258.900 104.276 M138.905 105.087 C 139.514 105.179,140.414 105.177,140.905 105.082 C 141.397 104.987,140.900 104.911,139.800 104.914 C 138.700 104.917,138.297 104.995,138.905 105.087 M134.100 105.876 C 134.485 105.976,135.115 105.976,135.500 105.876 C 135.885 105.775,135.570 105.693,134.800 105.693 C 134.030 105.693,133.715 105.775,134.100 105.876 M130.100 106.676 C 130.485 106.776,131.115 106.776,131.500 106.676 C 131.885 106.575,131.570 106.493,130.800 106.493 C 130.030 106.493,129.715 106.575,130.100 106.676 M126.600 107.200 C 125.891 107.505,125.925 107.547,126.900 107.572 C 127.505 107.587,128.000 107.420,128.000 107.200 C 128.000 106.731,127.693 106.731,126.600 107.200 M122.900 108.276 C 123.285 108.376,123.915 108.376,124.300 108.276 C 124.685 108.175,124.370 108.093,123.600 108.093 C 122.830 108.093,122.515 108.175,122.900 108.276 M119.800 108.800 C 119.096 109.102,119.135 109.147,120.124 109.172 C 120.776 109.188,121.144 109.032,121.000 108.800 C 120.864 108.580,120.718 108.413,120.676 108.428 C 120.634 108.444,120.240 108.611,119.800 108.800 M265.331 113.800 C 265.333 115.340,265.405 115.921,265.492 115.091 C 265.579 114.261,265.577 113.001,265.489 112.291 C 265.400 111.581,265.329 112.260,265.331 113.800 M162.140 118.000 C 162.140 119.870,162.209 120.635,162.293 119.700 C 162.377 118.765,162.377 117.235,162.293 116.300 C 162.209 115.365,162.140 116.130,162.140 118.000 M243.720 116.800 C 243.720 118.010,243.795 118.505,243.887 117.900 C 243.978 117.295,243.978 116.305,243.887 115.700 C 243.795 115.095,243.720 115.590,243.720 116.800 M122.707 117.090 C 123.426 117.179,124.506 117.177,125.107 117.086 C 125.708 116.995,125.120 116.922,123.800 116.924 C 122.480 116.926,121.988 117.001,122.707 117.090 M132.705 117.083 C 133.202 117.179,133.922 117.175,134.305 117.075 C 134.687 116.975,134.280 116.896,133.400 116.901 C 132.520 116.905,132.207 116.987,132.705 117.083 M264.531 123.000 C 264.533 124.540,264.605 125.121,264.692 124.291 C 264.779 123.461,264.777 122.201,264.689 121.491 C 264.600 120.781,264.529 121.460,264.531 123.000 M243.038 126.861 C 242.859 129.243,242.908 130.668,243.181 130.941 C 243.473 131.233,243.600 130.123,243.600 127.280 C 243.600 122.222,243.400 122.073,243.038 126.861 M140.800 124.300 C 140.800 124.465,140.790 134.924,140.776 147.543 C 140.763 160.161,140.853 170.586,140.976 170.710 C 141.099 170.833,141.200 160.373,141.200 147.467 C 141.200 134.560,141.110 124.000,141.000 124.000 C 140.890 124.000,140.800 124.135,140.800 124.300 M263.737 133.000 C 263.739 134.760,263.809 135.430,263.893 134.489 C 263.978 133.549,263.977 132.109,263.891 131.289 C 263.805 130.470,263.736 131.240,263.737 133.000 M162.169 138.400 C 162.169 142.910,162.227 144.755,162.298 142.500 C 162.370 140.245,162.370 136.555,162.298 134.300 C 162.227 132.045,162.169 133.890,162.169 138.400 M242.271 140.290 C 242.117 143.157,242.171 145.131,242.410 145.370 C 242.663 145.623,242.800 143.981,242.800 140.680 C 242.800 134.335,242.598 134.186,242.271 140.290 M262.944 144.400 C 262.944 146.490,263.012 147.345,263.094 146.300 C 263.176 145.255,263.176 143.545,263.094 142.500 C 263.012 141.455,262.944 142.310,262.944 144.400 M241.520 157.100 C 241.444 160.345,241.516 163.270,241.679 163.600 C 241.842 163.930,241.981 161.275,241.988 157.700 C 242.003 149.586,241.706 149.204,241.520 157.100 M262.151 157.600 C 262.151 160.130,262.216 161.165,262.296 159.900 C 262.375 158.635,262.375 156.565,262.296 155.300 C 262.216 154.035,262.151 155.070,262.151 157.600 M161.287 163.600 L 161.349 171.400 161.593 164.200 C 161.726 160.240,161.698 156.730,161.530 156.400 C 161.362 156.070,161.252 159.310,161.287 163.600 M261.273 174.220 L 261.347 180.200 261.587 174.600 C 261.719 171.520,261.686 168.829,261.514 168.620 C 261.341 168.411,261.233 170.931,261.273 174.220 M240.725 177.700 C 240.656 180.175,240.735 182.371,240.900 182.580 C 241.065 182.789,241.200 180.764,241.200 178.080 C 241.200 171.954,240.891 171.707,240.725 177.700 M201.900 183.099 C 204.815 183.167,209.585 183.167,212.500 183.099 C 215.415 183.031,213.030 182.975,207.200 182.975 C 201.370 182.975,198.985 183.031,201.900 183.099 M169.500 183.898 C 171.315 183.972,174.285 183.972,176.100 183.898 C 177.915 183.823,176.430 183.763,172.800 183.763 C 169.170 183.763,167.685 183.823,169.500 183.898 M139.915 194.900 C 139.852 199.575,139.924 203.760,140.075 204.200 C 140.226 204.640,140.361 200.815,140.375 195.700 C 140.389 190.585,140.317 186.400,140.215 186.400 C 140.114 186.400,139.979 190.225,139.915 194.900 M260.510 200.800 L 260.570 213.000 260.785 201.600 C 260.903 195.330,260.876 189.840,260.725 189.400 C 260.574 188.960,260.478 194.090,260.510 200.800 M191.200 194.319 C 191.530 194.481,196.210 194.512,201.600 194.387 L 211.400 194.160 201.000 194.092 C 195.280 194.055,190.870 194.157,191.200 194.319 M170.400 195.117 C 170.730 195.278,173.430 195.307,176.400 195.182 L 181.800 194.954 175.800 194.889 C 172.500 194.854,170.070 194.956,170.400 195.117 M160.453 197.300 L 160.505 199.000 160.753 197.600 C 160.968 196.381,161.181 196.168,162.400 195.953 L 163.800 195.705 162.100 195.653 L 160.400 195.600 160.453 197.300 M240.190 230.200 C 240.191 247.580,240.240 254.632,240.300 245.870 C 240.360 237.109,240.360 222.889,240.300 214.270 C 240.240 205.652,240.190 212.820,240.190 230.200 M159.660 217.220 L 159.721 225.400 160.070 217.630 C 160.305 212.403,160.285 209.725,160.010 209.450 C 159.730 209.170,159.619 211.638,159.660 217.220 M139.365 222.200 C 139.366 226.160,139.426 227.726,139.498 225.680 C 139.571 223.634,139.571 220.394,139.498 218.480 C 139.424 216.566,139.365 218.240,139.365 222.200 M158.873 243.000 L 158.921 251.400 159.268 243.678 C 159.494 238.669,159.477 235.719,159.220 235.278 C 158.951 234.817,158.840 237.292,158.873 243.000 M138.561 244.800 C 138.561 248.210,138.622 249.605,138.697 247.900 C 138.772 246.195,138.772 243.405,138.697 241.700 C 138.622 239.995,138.561 241.390,138.561 244.800 M260.400 251.200 C 260.400 253.033,260.517 254.416,260.661 254.273 C 260.943 253.990,260.866 248.333,260.576 248.043 C 260.479 247.946,260.400 249.367,260.400 251.200 M261.293 258.000 C 261.293 258.770,261.375 259.085,261.476 258.700 C 261.576 258.315,261.576 257.685,261.476 257.300 C 261.375 256.915,261.293 257.230,261.293 258.000 M137.760 265.000 C 137.761 268.300,137.822 269.597,137.898 267.882 C 137.973 266.167,137.972 263.467,137.897 261.882 C 137.821 260.297,137.759 261.700,137.760 265.000 M158.534 264.000 C 158.534 265.650,158.605 266.325,158.691 265.500 C 158.778 264.675,158.778 263.325,158.691 262.500 C 158.605 261.675,158.534 262.350,158.534 264.000 M240.718 264.900 C 240.625 265.175,240.675 265.940,240.827 266.600 C 241.082 267.701,241.109 267.660,241.153 266.100 C 241.200 264.404,241.036 263.953,240.718 264.900 M280.900 269.876 C 281.285 269.976,281.915 269.976,282.300 269.876 C 282.685 269.775,282.370 269.693,281.600 269.693 C 280.830 269.693,280.515 269.775,280.900 269.876 M273.907 270.690 C 274.626 270.779,275.706 270.777,276.307 270.686 C 276.908 270.595,276.320 270.522,275.000 270.524 C 273.680 270.526,273.188 270.601,273.907 270.690 M136.909 280.800 C 136.909 281.790,136.987 282.195,137.082 281.700 C 137.178 281.205,137.178 280.395,137.082 279.900 C 136.987 279.405,136.909 279.810,136.909 280.800 M151.705 281.887 C 152.314 281.979,153.214 281.977,153.705 281.882 C 154.197 281.787,153.700 281.711,152.600 281.714 C 151.500 281.717,151.097 281.795,151.705 281.887 M145.705 282.687 C 146.314 282.779,147.214 282.777,147.705 282.682 C 148.197 282.587,147.700 282.511,146.600 282.514 C 145.500 282.517,145.097 282.595,145.705 282.687 M138.905 283.487 C 139.514 283.579,140.414 283.577,140.905 283.482 C 141.397 283.387,140.900 283.311,139.800 283.314 C 138.700 283.317,138.297 283.395,138.905 283.487 M263.505 284.283 C 264.002 284.379,264.722 284.375,265.105 284.275 C 265.487 284.175,265.080 284.096,264.200 284.101 C 263.320 284.105,263.007 284.187,263.505 284.283 " stroke="none" fill="#3c2928" fill-rule="evenodd"></path></g></svg>